<svg width="159" height="15" viewBox="0 0 159 15" fill="none" xmlns="http://www.w3.org/2000/svg">
<g clip-path="url(#clip0_577_9549)">
<path d="M118.524 1.32883C118.76 2.02461 119.027 2.80814 119.237 3.4099C119.454 4.01792 119.81 4.99577 120.02 5.60379L119.995 5.65394C119.626 5.66021 119.473 5.66648 119.174 5.67901L119.123 5.63514C118.944 5.03965 118.887 4.87041 118.702 4.29999C118.422 4.29999 118.142 4.29372 117.862 4.29372C117.55 4.29372 117.225 4.29999 116.939 4.29999C116.735 4.89548 116.69 5.04592 116.519 5.61006L116.468 5.65394C116.162 5.65394 116.092 5.65394 115.742 5.67275L115.716 5.62887C115.735 5.55992 115.767 5.49723 115.793 5.43455C116.06 4.75131 116.321 4.06807 116.576 3.38482C117.002 2.2628 117.155 1.84909 117.359 1.24107L117.416 1.19719C117.913 1.19092 117.977 1.19092 118.429 1.17212L118.48 1.216L118.518 1.32883H118.524ZM117.123 3.79226C117.353 3.79226 117.575 3.79853 117.805 3.79853C118.047 3.79853 118.301 3.79226 118.55 3.79226L117.868 1.64851L117.123 3.79226Z" fill="#270089"/>
<path d="M121.644 5.69155L121.606 5.64767C121.625 5.13367 121.631 4.65728 121.631 4.00538C121.631 2.23773 121.606 1.71746 121.568 1.24107L121.612 1.19719L122.65 1.17839C123.478 1.16585 124.21 1.15958 124.796 1.49807C125.725 2.03087 125.725 3.05887 125.725 3.32214C125.725 3.67943 125.674 4.02419 125.534 4.35641C125.095 5.3844 124.159 5.59753 123.44 5.66021C123.166 5.68528 123.058 5.68528 122.115 5.68528H121.644V5.69155ZM124.732 4.2185C124.853 3.9427 124.904 3.62928 124.904 3.27826C124.904 3.07141 124.904 2.41324 124.388 2.01207C123.968 1.69239 123.395 1.69239 123.121 1.69239C122.873 1.69239 122.676 1.69865 122.434 1.70492C122.421 2.10609 122.414 2.33175 122.414 3.28453C122.414 4.44416 122.421 4.58206 122.434 5.15875C123.382 5.17128 124.299 5.18382 124.732 4.21223V4.2185Z" fill="#270089"/>
<path d="M129.552 5.67283C129.068 5.67283 129.036 5.67909 128.527 5.69163L128.476 5.64775C128.247 4.93944 128.018 4.22485 127.776 3.51027C127.655 3.14671 127.031 1.34771 126.999 1.24115L127.037 1.19727C127.432 1.19727 127.495 1.191 127.852 1.17847L127.903 1.22234C128.03 1.66112 128.075 1.81783 128.495 3.22193L129.113 5.21524L129.743 3.2282C129.947 2.57003 130.151 1.90559 130.354 1.24115L130.399 1.19727C130.736 1.19727 130.775 1.19727 131.106 1.17847L131.144 1.22234C131.029 1.54203 130.488 3.1091 130.367 3.46639C130.138 4.09949 129.902 4.73258 129.692 5.37195C129.667 5.45344 129.635 5.53492 129.609 5.62268L129.565 5.66656L129.552 5.67283Z" fill="#270089"/>
<path d="M134.69 1.32883C134.926 2.02461 135.193 2.80814 135.403 3.4099C135.62 4.01792 135.976 4.99577 136.187 5.60379L136.161 5.65394C135.792 5.66021 135.639 5.66648 135.34 5.67901L135.289 5.63514C135.111 5.03965 135.053 4.87041 134.869 4.29999C134.588 4.29999 134.308 4.29372 134.028 4.29372C133.716 4.29372 133.391 4.29999 133.105 4.29999C132.901 4.89548 132.857 5.04592 132.685 5.61006L132.634 5.65394C132.328 5.65394 132.258 5.65394 131.908 5.67275L131.882 5.62887C131.901 5.55992 131.933 5.49723 131.959 5.43455C132.226 4.75131 132.487 4.06807 132.742 3.38482C133.169 2.2628 133.321 1.84909 133.525 1.24107L133.582 1.19719C134.079 1.19092 134.143 1.19092 134.595 1.17212L134.646 1.216L134.684 1.32883H134.69ZM133.29 3.79226C133.519 3.79226 133.742 3.79853 133.971 3.79853C134.213 3.79853 134.467 3.79226 134.716 3.79226L134.034 1.64851L133.29 3.79226Z" fill="#270089"/>
<path d="M141.726 5.6226L141.688 5.66648C141.268 5.66648 141.242 5.66648 140.815 5.68528L140.758 5.6414C140.338 4.97697 139.924 4.31253 139.497 3.64809L138.377 1.86163L138.447 4.03672C138.453 4.29999 138.466 4.56326 138.472 4.82653C138.491 5.35306 138.491 5.3656 138.511 5.6226L138.466 5.66648C138.154 5.66648 138.129 5.66648 137.785 5.68528L137.74 5.6414C137.766 5.03965 137.778 4.43163 137.778 3.82987C137.778 2.97112 137.772 2.09982 137.734 1.24107L137.772 1.19719C138.211 1.19092 138.281 1.19092 138.682 1.17839L138.753 1.22227C139.236 1.99326 139.727 2.80187 140.198 3.53526L141.077 4.92055L141.019 2.81441C140.994 1.81775 140.981 1.67358 140.956 1.2348L141 1.19092C141.318 1.19092 141.389 1.18466 141.675 1.17212L141.72 1.216C141.707 1.987 141.694 2.78307 141.694 3.56033C141.694 4.15582 141.701 4.75758 141.713 5.35306V5.61633L141.726 5.6226Z" fill="#270089"/>
<path d="M147.552 4.81402C147.526 5.10862 147.514 5.20265 147.501 5.44084L147.456 5.48472C147.278 5.56621 146.832 5.76053 146.119 5.76053C144.572 5.76053 143.655 4.83909 143.655 3.42872C143.655 3.11531 143.681 2.35058 144.298 1.74883C144.897 1.15961 145.667 1.09692 146.164 1.09692C146.813 1.09692 147.227 1.22229 147.456 1.29751L147.482 1.34766C147.444 1.57331 147.437 1.636 147.418 1.9118L147.355 1.93687C147.214 1.85539 146.852 1.6548 146.228 1.6548C145.094 1.6548 144.477 2.35058 144.477 3.41619C144.477 4.61343 145.209 5.17131 146.183 5.17131C146.845 5.17131 147.265 4.92684 147.488 4.78267L147.539 4.80775L147.552 4.81402Z" fill="#270089"/>
<path d="M152.556 5.15252C152.537 5.36564 152.537 5.40951 152.518 5.6289L152.467 5.67278C151.086 5.67278 150.869 5.67905 149.526 5.69159L149.488 5.64771C149.507 5.14625 149.532 4.80776 149.532 3.64813C149.532 2.58252 149.532 1.9745 149.481 1.24738L149.526 1.2035C150.92 1.19723 151.194 1.19723 152.499 1.18469L152.544 1.22857C152.525 1.41662 152.506 1.49184 152.493 1.72376L152.448 1.76764C151.538 1.74257 151.232 1.74257 150.334 1.7363C150.315 2.31925 150.315 2.50103 150.315 3.08398C151.188 3.09025 151.455 3.08398 152.321 3.07145L152.359 3.11532C152.334 3.33471 152.334 3.3974 152.321 3.60425L152.276 3.64813C151.455 3.62932 151.277 3.62932 150.315 3.62932C150.302 4.36271 150.309 4.54449 150.315 5.14625C151.385 5.14625 151.601 5.14625 152.518 5.11491L152.563 5.15878L152.556 5.15252Z" fill="#270089"/>
<path d="M154.556 5.69155L154.518 5.64767C154.537 5.13367 154.543 4.65728 154.543 4.00538C154.543 2.23773 154.518 1.71746 154.479 1.24107L154.524 1.19719L155.562 1.17839C156.389 1.16585 157.122 1.15958 157.707 1.49807C158.637 2.03087 158.637 3.05887 158.637 3.32214C158.637 3.67943 158.586 4.02419 158.446 4.35641C158.007 5.3844 157.071 5.59753 156.351 5.66021C156.077 5.68528 155.969 5.68528 155.027 5.68528H154.556V5.69155ZM157.644 4.2185C157.765 3.9427 157.816 3.62928 157.816 3.27826C157.816 3.07141 157.816 2.41324 157.3 2.01207C156.88 1.69239 156.307 1.69239 156.033 1.69239C155.785 1.69239 155.587 1.69865 155.345 1.70492C155.333 2.10609 155.326 2.33175 155.326 3.28453C155.326 4.44416 155.333 4.58206 155.345 5.15875C156.294 5.17128 157.211 5.18382 157.644 4.21223V4.2185Z" fill="#270089"/>
<path d="M121.167 10.2674C121.205 11.7342 121.256 13.201 121.351 14.6678L121.313 14.7116C120.956 14.7116 120.918 14.7179 120.549 14.7304L120.504 14.6866C120.511 13.972 120.504 13.7463 120.485 13.0505L120.472 12.3798C120.472 11.9285 120.466 10.9632 120.466 10.7187C120.352 11.0886 120.25 11.4208 119.95 12.3109L119.626 13.2323C119.365 13.9344 119.282 14.1851 119.116 14.6678L119.072 14.7116C118.69 14.7116 118.651 14.7116 118.25 14.7304L118.206 14.6866C118.168 14.58 118.136 14.4734 118.098 14.3669C118.04 14.1726 117.728 13.2261 117.658 13.0192L117.378 12.1354C117.098 11.2265 117.066 11.1262 116.971 10.725C116.964 11.3581 116.958 11.496 116.932 12.1291L116.881 13.2637C116.856 14.0096 116.856 14.1788 116.843 14.6678L116.805 14.7116C116.468 14.7116 116.423 14.7116 116.124 14.7304L116.086 14.6866C116.098 14.5612 116.111 14.4296 116.13 14.2979C116.2 13.5457 116.232 12.7873 116.277 12.0351C116.347 10.9068 116.353 10.8378 116.353 10.28L116.398 10.2361C116.913 10.2361 117.041 10.2298 117.486 10.2173L117.537 10.2612C117.665 10.7689 117.786 11.1325 117.926 11.565L118.696 14.1224L119.594 11.4835C119.874 10.6623 119.893 10.631 119.995 10.28L120.04 10.2361C120.555 10.2361 120.619 10.2298 121.109 10.2173L121.154 10.2612L121.167 10.2674Z" fill="#270089"/>
<path d="M125.63 10.3802C125.865 11.076 126.133 11.8595 126.343 12.4613C126.559 13.0693 126.916 14.0472 127.126 14.6552L127.101 14.7053C126.731 14.7116 126.579 14.7179 126.279 14.7304L126.228 14.6865C126.05 14.091 125.993 13.9218 125.808 13.3514C125.528 13.3514 125.248 13.3451 124.968 13.3451C124.656 13.3451 124.331 13.3514 124.044 13.3514C123.841 13.9469 123.796 14.0973 123.624 14.6615L123.573 14.7053C123.268 14.7053 123.198 14.7053 122.847 14.7241L122.822 14.6803C122.841 14.6113 122.873 14.5486 122.898 14.4859C123.166 13.8027 123.427 13.1195 123.682 12.4362C124.108 11.3142 124.261 10.9005 124.465 10.2925L124.522 10.2486C125.019 10.2423 125.082 10.2423 125.534 10.2235L125.585 10.2674L125.624 10.3802H125.63ZM124.229 12.8437C124.458 12.8437 124.681 12.8499 124.91 12.8499C125.152 12.8499 125.407 12.8437 125.655 12.8437L124.974 10.6999L124.229 12.8437Z" fill="#270089"/>
<path d="M131.074 10.7877C130.482 10.7751 130.38 10.7751 129.768 10.7751C129.756 11.4082 129.756 11.5085 129.756 12.0727C129.756 13.6648 129.781 14.2916 129.807 14.6677L129.762 14.7116C129.361 14.7116 129.336 14.7116 128.947 14.7304L128.909 14.6865C128.947 13.7964 128.954 12.9126 128.954 12.0288C128.954 11.3831 128.941 11.0447 128.934 10.7751C128.317 10.7814 128.247 10.7814 127.616 10.8002L127.572 10.7563C127.585 10.5369 127.585 10.5119 127.597 10.2862L127.636 10.2423C128.145 10.2423 128.96 10.2423 129.469 10.236C130.017 10.236 130.558 10.2298 131.106 10.2235L131.144 10.2674C131.125 10.4868 131.118 10.5557 131.118 10.7438L131.074 10.7877Z" fill="#270089"/>
<path d="M135.779 14.1977C135.76 14.4108 135.76 14.4547 135.741 14.6741L135.69 14.7179C134.308 14.7179 134.092 14.7242 132.748 14.7368L132.71 14.6929C132.729 14.1914 132.755 13.8529 132.755 12.6933C132.755 11.6277 132.755 11.0197 132.704 10.2925L132.748 10.2487C134.143 10.2424 134.416 10.2424 135.722 10.2299L135.766 10.2737C135.747 10.4618 135.728 10.537 135.715 10.7689L135.671 10.8128C134.76 10.7877 134.455 10.7877 133.557 10.7815C133.538 11.3644 133.538 11.5462 133.538 12.1291C134.41 12.1354 134.678 12.1291 135.543 12.1166L135.582 12.1605C135.556 12.3799 135.556 12.4426 135.543 12.6494L135.499 12.6933C134.678 12.6745 134.499 12.6745 133.538 12.6745C133.525 13.4079 133.531 13.5897 133.538 14.1914C134.608 14.1914 134.824 14.1914 135.741 14.1601L135.785 14.2039L135.779 14.1977Z" fill="#270089"/>
<path d="M138.574 14.7179C138.173 14.7179 138.167 14.7179 137.797 14.7367L137.753 14.6928C137.772 14.0785 137.778 13.4579 137.778 12.8437C137.778 11.427 137.753 10.9256 137.708 10.2925L137.753 10.2486H137.931C138.059 10.2486 138.402 10.2423 138.644 10.2423H139.077C139.466 10.2361 139.841 10.2361 140.191 10.3426C140.739 10.5056 141.083 10.8566 141.083 11.4646C141.083 11.9724 140.777 12.4864 139.873 12.7058C139.994 12.8499 140.548 13.5708 140.675 13.74C140.892 14.0158 140.994 14.1475 141.433 14.6677L141.408 14.7304C141.268 14.7304 141.115 14.7304 140.975 14.7367C140.828 14.7429 140.675 14.7492 140.529 14.7618L140.478 14.7304C140.453 14.6865 140.421 14.6427 140.395 14.5988C140.191 14.2728 139.95 13.9719 139.72 13.6585C139.294 13.0819 139.256 13.0192 139.084 12.8186C138.867 12.8249 138.823 12.8311 138.574 12.8249C138.574 13.1759 138.581 14.1475 138.625 14.6803L138.581 14.7241L138.574 14.7179ZM140.02 12.0539C140.198 11.9222 140.287 11.7216 140.287 11.521C140.287 11.3894 140.249 11.2327 140.153 11.0823C139.924 10.7689 139.542 10.7501 139.014 10.7501C138.924 10.7501 138.797 10.7501 138.555 10.7563C138.549 11.4897 138.549 11.59 138.555 12.2983C139.09 12.3046 139.682 12.3171 140.02 12.0539Z" fill="#270089"/>
<path d="M144.069 10.2674C144.05 10.6937 144.031 11.1951 144.031 12.2796C144.031 13.4956 144.044 14.0159 144.088 14.6678L144.044 14.7116C143.732 14.7179 143.636 14.7179 143.26 14.7304L143.216 14.6866C143.229 14.2979 143.241 13.9657 143.241 13.1446C143.241 12.1855 143.241 11.239 143.19 10.2862L143.229 10.2361C143.541 10.2361 143.655 10.2361 144.012 10.2173L144.063 10.2612L144.069 10.2674Z" fill="#270089"/>
<path d="M148.456 10.3802C148.692 11.076 148.959 11.8595 149.169 12.4613C149.386 13.0693 149.742 14.0472 149.952 14.6552L149.927 14.7053C149.558 14.7116 149.405 14.7179 149.105 14.7304L149.055 14.6865C148.876 14.091 148.819 13.9218 148.634 13.3514C148.354 13.3514 148.074 13.3451 147.794 13.3451C147.482 13.3451 147.157 13.3514 146.871 13.3514C146.667 13.9469 146.622 14.0973 146.45 14.6615L146.399 14.7053C146.094 14.7053 146.024 14.7053 145.674 14.7241L145.648 14.6803C145.667 14.6113 145.699 14.5486 145.725 14.4859C145.992 13.8027 146.253 13.1195 146.508 12.4362C146.934 11.3142 147.087 10.9005 147.291 10.2925L147.348 10.2486C147.845 10.2423 147.908 10.2423 148.361 10.2235L148.411 10.2674L148.45 10.3802H148.456ZM147.055 12.8437C147.284 12.8437 147.507 12.8499 147.737 12.8499C147.979 12.8499 148.233 12.8437 148.482 12.8437L147.8 10.6999L147.055 12.8437Z" fill="#270089"/>
<path d="M154.339 14.1851C154.32 14.392 154.32 14.4923 154.301 14.6741L154.263 14.7179C153.002 14.7179 152.894 14.7179 151.563 14.7368L151.519 14.6929C151.531 14.1789 151.557 13.4204 151.557 12.3109C151.557 11.3331 151.538 10.794 151.5 10.2925L151.55 10.2487C151.932 10.2424 152.003 10.2424 152.365 10.2299L152.41 10.2675C152.34 11.4522 152.34 12.9754 152.34 13.1258C152.34 13.6147 152.346 13.8717 152.353 14.1726C153.136 14.1726 153.352 14.1663 154.295 14.1413L154.339 14.1914V14.1851Z" fill="#270089"/>
<path d="M157.797 12.1855C158.312 12.3861 159 12.6557 159 13.4643C159 14.1726 158.414 14.812 157.179 14.812C156.428 14.812 155.95 14.6114 155.778 14.5362L155.753 14.4923C155.778 14.2729 155.791 14.1475 155.81 13.9093L155.88 13.8842C156.058 13.9908 156.466 14.2603 157.128 14.2603C157.854 14.2603 158.16 13.9219 158.16 13.5458C158.16 13.1007 157.752 12.9315 157.287 12.7748L156.931 12.6369C156.428 12.43 155.753 12.1542 155.753 11.3832C155.753 11.1513 155.823 10.9068 155.969 10.7188C156.294 10.2988 156.88 10.1609 157.453 10.1609C158.026 10.1609 158.351 10.2549 158.726 10.3615L158.764 10.4116C158.739 10.6498 158.726 10.7438 158.707 10.9695L158.65 10.9946C158.344 10.8567 158.013 10.7062 157.485 10.7062C156.899 10.7062 156.53 10.9507 156.53 11.3268C156.53 11.6089 156.74 11.7468 156.892 11.8283C156.982 11.8784 157.013 11.8909 157.44 12.0539L157.797 12.1918V12.1855Z" fill="#270089"/>
<path d="M58.272 6.64435C57.6544 6.32467 56.8713 5.96111 55.9162 5.55367C55.8398 5.52233 55.757 5.47845 55.6424 5.43457C54.7383 5.08982 54.1907 4.93311 53.7004 4.66357C53.6622 4.65104 53.6304 4.63223 53.5922 4.61969C53.0956 4.35016 52.8027 4.14957 52.7072 4.08689C52.3761 3.78601 52.1787 3.42872 52.1787 3.04009C52.1787 1.98702 53.7004 1.05931 55.4323 1.05931C55.5596 1.05931 55.6934 1.06558 55.8207 1.07811C55.8589 1.07811 55.8971 1.08438 55.9353 1.09065C57.3934 1.26616 58.896 2.02463 59.0679 2.92099C59.0679 2.92726 59.0807 2.93979 59.087 2.95233C59.1698 3.17172 59.2526 3.36604 59.3354 3.46006C59.3354 3.46633 59.9339 3.69199 59.9339 3.69199V0.0939941H59.5391C59.4309 0.0939941 59.3799 0.18175 59.3481 0.294579C59.2653 0.633066 59.0425 0.777237 58.7814 0.777237C58.6413 0.777237 58.2402 0.727091 57.9155 0.62053C56.9413 0.307116 56.0308 0.150409 55.1776 0.150409C53.5858 0.150409 51.8667 0.539042 50.8289 1.27243C49.7847 2.01209 49.2689 2.93979 49.2689 4.06182C49.2689 5.0146 49.7656 5.81694 50.3768 6.51272C51.0453 7.27118 52.5289 8.02964 54.3881 8.78183C56.0626 9.47761 57.0495 9.9352 57.3615 10.1734C57.769 10.4993 57.9791 10.9381 57.9791 11.4835C57.9791 12.1228 57.6608 12.7685 57.0304 13.2072C56.4001 13.6523 55.5151 13.7839 54.5918 13.7839C53.5795 13.7839 52.6053 13.4893 51.7203 12.944C50.8098 12.3986 50.4277 11.5587 50.224 11.1826C50.0266 10.8002 50.0584 10.6247 49.9757 10.5307L49.9693 10.5119V10.5244C49.9311 10.4805 49.8865 10.4429 49.8483 10.4304C49.842 10.4241 49.8356 10.4179 49.8292 10.4116C49.6573 10.2674 49.2689 10.4116 49.2689 10.4116V14.2102L49.2307 14.6991L49.8738 14.7242C49.8738 14.7242 49.9693 14.58 50.0266 14.4546C50.1412 14.1976 50.294 14.0159 50.5487 14.0159C50.5805 14.0221 50.6187 14.0284 50.6569 14.0409C52.4843 14.5737 54.1143 14.8495 55.1585 14.8495C56.8649 14.8495 58.4248 14.2979 59.5709 13.5645C60.5897 12.9126 61.0927 11.9599 61.271 11.0196C61.3028 10.888 61.3283 10.7438 61.3537 10.5808C61.7358 7.90427 58.2911 6.64435 58.2911 6.64435H58.272Z" fill="#270089"/>
<path d="M55.1394 14.9435C54.0442 14.9435 52.3951 14.5236 50.606 14.0033C50.5869 14.0033 50.5678 13.9908 50.5423 13.9908L50.5041 13.9782C50.1539 14.0158 49.8865 14.7304 49.8865 14.7304H49.1606V10.3614L49.861 10.3426C49.861 10.3426 50.1412 10.9506 50.2494 11.1575L50.3004 11.2515C50.5041 11.6527 50.9307 12.3924 51.7457 12.8813C52.6371 13.4266 53.5858 13.7087 54.5727 13.7087C55.6424 13.7087 56.4192 13.5269 56.954 13.1445C57.5334 12.7371 57.8645 12.1354 57.8645 11.496C57.8645 10.9757 57.6735 10.5683 57.2851 10.2549C56.9922 10.0292 55.9989 9.56536 54.3371 8.87584C52.185 8.00455 50.8989 7.27116 50.294 6.58165C49.5236 5.71036 49.1606 4.91429 49.1606 4.07434C49.1606 2.92725 49.7019 1.96193 50.7652 1.20974C51.7584 0.507688 53.4457 0.0689084 55.1712 0.0689084C56.0308 0.0689084 56.9604 0.225615 57.9409 0.545298C58.3293 0.670664 58.6922 0.695737 58.7814 0.695737C58.9151 0.695737 59.3226 0.0250304 59.3226 0.0250304L60.0293 0.00622559V3.77346H59.329C59.329 3.77346 59.2971 3.59168 58.8896 2.9962C58.4821 2.40071 57.336 1.35391 55.9289 1.18466H55.9034C55.9034 1.18466 55.8525 1.17213 55.8207 1.17213C55.6806 1.15959 55.5532 1.15332 55.4386 1.15332C53.7832 1.15332 52.2805 2.04969 52.2805 3.04007C52.2805 3.38483 52.4525 3.72332 52.7772 4.02419C52.7963 4.03673 53.0828 4.23732 53.6431 4.54446L53.6749 4.557C53.6749 4.557 53.7195 4.5758 53.7386 4.58207C54.0761 4.77012 54.4263 4.89549 54.9102 5.071C55.1394 5.15249 55.3877 5.24651 55.6806 5.35307C55.7952 5.39695 55.8843 5.43456 55.9544 5.47217C56.884 5.86707 57.6735 6.23063 58.3038 6.55658C58.3357 6.56912 61.8121 7.87292 61.4237 10.5934C61.3983 10.7501 61.3728 10.9068 61.341 11.0384C61.1945 11.8094 60.7743 12.8875 59.5964 13.6397C58.3484 14.4421 56.763 14.9435 55.1394 14.9435Z" fill="#270089"/>
<path d="M32.1031 0.432495H27.8498V1.14708C27.939 1.14708 28.0409 1.14708 28.1618 1.14708C28.7794 1.14708 28.7794 1.41035 28.7794 1.49183C28.7794 1.69869 28.3337 2.48849 27.7225 3.57917C27.5124 3.96781 27.3214 4.30629 27.1558 4.61344C26.6337 5.57249 26.309 6.17424 25.9524 6.70078C25.2202 5.54741 24.7618 4.83283 24.2078 3.9302C23.8194 3.28456 23.5202 2.84578 23.3228 2.55744C23.1891 2.36313 23.1063 2.23149 23.0618 2.15C22.9535 1.94315 22.9026 1.74257 22.9026 1.54825C22.9026 1.36647 22.979 1.19096 23.9277 1.16588H24.176V0.432495H17.6179V1.21603C18.1336 1.2223 18.4965 1.33513 18.6875 1.53571C18.9422 1.89927 19.1842 2.23149 19.407 2.53237C19.9355 3.26576 20.3557 3.84244 20.6868 4.41285C21.9666 6.34348 22.7179 7.87295 23.0618 8.62514V13.1571C23.0618 13.4517 23.0236 13.4831 22.9217 13.5583L22.9026 13.5771C22.8771 13.6147 22.6988 13.7463 21.6037 13.7839V14.6176H28.3083V13.7714C27.6525 13.7526 27.385 13.715 27.1749 13.646C26.9775 13.5834 26.8884 13.4705 26.8884 13.2887V9.59046C26.8884 8.84453 26.933 8.33053 27.0285 8.05473C27.1176 7.79146 27.436 7.03926 28.0026 6.09275C28.4547 5.29668 28.8049 4.68239 29.0341 4.25615C30.4986 1.55452 30.8169 1.43542 30.8297 1.43542L30.8679 1.41662C30.9697 1.3414 31.269 1.2411 32.0967 1.17842V0.432495H32.1031Z" fill="#270089"/>
<path d="M72.407 0.45752V1.14703H72.4898C72.5725 1.15957 72.6617 1.15957 72.7699 1.15957C73.3239 1.15957 74.1962 1.41657 74.3108 1.81147V9.37729C74.3044 11.8909 73.9988 12.2168 73.4448 12.8186L73.3302 12.9439C72.8654 13.4579 71.9486 13.7463 70.7452 13.7463C69.7901 13.7463 69.0069 13.5144 68.4275 13.0505C67.9627 12.6807 67.6698 12.0726 67.5552 11.239C67.5107 10.9506 67.4852 10.2674 67.4852 9.20177V1.85535C67.5107 1.71118 67.5489 1.59835 67.5998 1.5294C67.6635 1.44164 67.8545 1.33508 68.3893 1.32254C68.523 1.32254 68.5549 1.31627 68.5931 1.31001C68.6122 1.31001 68.6376 1.31001 68.6886 1.30374H68.7714V0.45752H62.0477V1.18464C62.608 1.19091 63.0155 1.23479 63.2638 1.31001C63.4484 1.36642 63.563 1.51059 63.6013 1.74252V1.79266C63.6013 1.79266 63.6013 1.83027 63.6013 1.84908V9.60294C63.6013 11.4145 64.0087 12.6932 64.811 13.4141C65.8934 14.3919 67.377 14.6928 69.268 14.8495C69.6246 14.8808 69.9875 14.8934 70.3504 14.8934C71.713 14.8934 73.0437 14.6928 73.9287 14.3355C75.6606 13.6397 76.431 12.3108 76.431 10.0417V1.82401C76.4565 1.5482 76.5202 1.44791 76.5775 1.38523C76.6539 1.29747 77.0232 1.19091 77.6599 1.14703C77.7235 1.14703 77.7426 1.14076 77.7681 1.12823C77.7681 1.12823 77.7809 1.12823 77.7936 1.12823H77.8764V0.45752H72.407Z" fill="#270089"/>
<path d="M94.8193 0.350952H90.6361V1.053C90.6998 1.053 90.7571 1.053 90.8717 1.053C91.2473 1.053 91.6103 1.1721 91.7376 1.3288C91.7503 1.39776 91.7631 1.50432 91.7631 1.65475V8.77552L83.454 0.451245H78.4303V1.22851L78.9078 1.26612L78.9779 1.27866C79.4745 1.47297 79.6592 1.62341 79.8247 1.83027C79.9457 2.02458 80.0284 2.23771 80.0667 2.4759C80.073 2.51978 80.0858 2.6138 80.0985 2.80812C80.1112 3.07766 80.1176 3.47256 80.1176 3.94268V12.4863C80.1049 12.5929 80.1112 13.0881 80.1112 13.0881C80.1112 13.0944 80.1112 13.2824 79.9266 13.4391L79.8756 13.4705C79.6783 13.577 79.1434 13.6648 78.4367 13.7087V14.4546H83.0146V13.7525C82.9573 13.7525 82.8937 13.7525 82.779 13.7525C82.4034 13.7525 82.0405 13.6334 81.9131 13.4767C81.9004 13.4141 81.894 13.3012 81.894 13.1508V3.92387L92.4635 14.4859H93.4122V1.71744C93.4122 1.71744 93.4122 1.52939 93.5968 1.36641C93.6159 1.35388 93.6286 1.34134 93.6477 1.33507C93.8197 1.24732 94.0998 1.14702 94.8193 1.09688V0.350952Z" fill="#270089"/>
<path d="M16.5545 13.8654C16.0261 13.8278 15.6377 13.7338 15.4148 13.5896C15.1601 13.4204 15.0519 13.038 15.0519 12.267V2.49476C15.0519 1.83032 15.1283 1.61093 15.2493 1.47303C15.3384 1.37274 15.5995 1.2411 16.3126 1.19723C16.3954 1.19723 16.4781 1.18469 16.5482 1.17842V0.432495H10.1046V1.20976C10.1747 1.20976 10.2447 1.20976 10.3275 1.20976C11.0788 1.20976 11.4417 1.62347 11.4417 2.46969V6.262C9.608 6.33722 7.31583 6.34975 5.70495 6.29961L5.20831 6.262V2.26283C5.20831 1.893 5.25925 1.63601 5.35476 1.4981C5.41843 1.41035 5.60944 1.30379 6.14428 1.29125C6.30346 1.29125 6.4308 1.28498 6.54541 1.27871V0.432495H0V1.15335C0.55394 1.15335 0.967804 1.19723 1.21612 1.27871C1.45807 1.35393 1.57905 1.57332 1.57905 1.94942V12.7559C1.57905 13.2762 1.53448 13.5144 1.4326 13.5708C1.17155 13.715 0.694017 13.7902 0 13.7965V14.6239H6.55815V13.8341C6.43717 13.8215 6.28436 13.8027 6.10608 13.7839C5.52667 13.7213 5.22105 13.5457 5.20831 13.2637V7.77892H11.4417V12.8562C11.429 13.1822 11.4099 13.2574 11.3972 13.3264V13.3577C11.3972 13.4454 11.2698 13.5332 11.047 13.6147C10.7859 13.7087 10.4803 13.7651 10.1301 13.7777C10.1301 13.7777 10.1237 13.7777 10.1174 13.7777V14.6176H16.5418V13.8592L16.5545 13.8654Z" fill="#270089"/>
<path d="M47.9763 7.34638C47.8808 3.21558 44.0096 -0.0501914 39.3361 0.0501011C34.6627 0.150394 30.9443 3.57288 31.0398 7.70367C31.1353 11.8282 35.0065 15.1002 39.68 15C44.3534 14.8997 48.0718 11.4772 47.9763 7.34638ZM39.508 13.5959C37.1267 13.5959 35.2039 10.8817 35.2039 7.52816C35.2039 4.17463 37.1331 1.46046 39.508 1.46046C41.883 1.46046 43.8122 4.17463 43.8122 7.52816C43.8122 10.8817 41.883 13.5959 39.508 13.5959Z" fill="#270089"/>
<path d="M104.752 8.25527V8.96985C105.312 8.96985 105.726 9.01373 105.987 9.08895C106.172 9.14536 106.236 9.23939 106.312 9.5528C106.331 9.8098 106.344 10.0981 106.357 10.399V10.6435H106.363C106.376 11.0384 106.382 11.4396 106.382 11.7843C106.382 12.9816 105.503 13.4203 104.969 13.5833C104.911 13.6084 104.657 13.6523 104.657 13.6523C104.599 13.6523 104.434 13.6711 104.408 13.6711C104.332 13.6773 103.892 13.6523 103.854 13.6523C103.377 13.6209 103.007 13.5645 102.632 13.4015C102.243 13.2448 101.919 13.0442 101.677 12.806C100.397 11.753 99.531 9.79727 99.531 7.55949C99.531 4.71369 100.919 2.32547 102.797 1.67357C102.969 1.61089 103.396 1.46045 103.975 1.36643C104.052 1.35389 104.128 1.34762 104.204 1.33508C105.949 1.15957 107.051 1.69238 107.662 2.16877C107.675 2.1813 107.687 2.18757 107.7 2.20011C107.706 2.20638 107.719 2.21264 107.745 2.23772L107.764 2.25652C108.375 2.78306 108.693 3.59793 108.789 3.95523C108.884 4.31252 108.923 4.44415 108.923 4.44415H109.279C109.343 4.46296 109.413 4.46296 109.483 4.45042H109.814V0.282013H109.031V0.300817C108.929 0.332159 108.674 0.727061 108.674 0.727061C108.674 0.727061 108.528 0.971524 108.394 0.971524C108.267 0.971524 108.044 0.921377 107.732 0.821085C107.617 0.783475 107.509 0.752134 107.394 0.720792L107.324 0.701987C106.312 0.357232 105.331 0.187988 104.408 0.187988C101.785 0.187988 99.2954 0.965255 97.7546 2.27533C96.1182 3.66062 95.2841 5.422 95.2841 7.50934C95.2841 9.59668 96.2074 11.7279 97.6909 12.9565C99.1935 14.1976 101.6 14.9435 104.134 14.9435C105.987 14.9435 108.069 14.3731 109.992 13.3451L110.043 13.32V11.9786C110.043 11.6339 110.043 11.1324 110.049 10.6498V10.4868C110.049 10.2423 110.056 10.0041 110.062 9.80353C110.081 9.57788 110.132 9.40863 110.202 9.31461C110.266 9.22685 110.457 9.12029 111.005 9.10775C111.164 9.10775 111.297 9.09522 111.412 9.09522V8.26154H104.765L104.752 8.25527Z" fill="#270089"/>
</g>
<defs>
<clipPath id="clip0_577_9549">
<rect width="159" height="15" fill="white"/>
</clipPath>
</defs>
</svg>
